{
  "accessors": [
    {
      "bufferView": 1,
      "componentType": 5126,
      "count": 165,
      "max": [
        0.44637000560760498,
        1.6824500560760498,
        8.478449821472168
      ],
      "min": [
        -0.44637000560760498,
        9.9999997473787516e-06,
        -11.019599914550781
      ],
      "type": "VEC3"
    },
    {
      "bufferView": 1,
      "byteOffset": 1980,
      "componentType": 5126,
      "count": 165,
      "max": [
        1,
        1,
        1
      ],
      "min": [
        -1,
        -1,
        -1
      ],
      "type": "VEC3"
    },
    {
      "bufferView": 0,
      "componentType": 5125,
      "count": 384,
      "max": [
        164
      ],
      "min": [
        0
      ],
      "type": "SCALAR"
    }
  ],
  "asset": {
    "extras": {
      "author": "Algirdas Lalys (https://sketchfab.com/alalys)",
      "license": "CC-BY-4.0 (http://creativecommons.org/licenses/by/4.0/)",
      "source": "https://sketchfab.com/3d-models/wooden-chair-f42268c40a114d93b5e0794110b54b47",
      "title": "Wooden Chair"
    },
    "generator": "Sketchfab-6.30.0",
    "version": "2.0"
  },
  "bufferViews": [
    {
      "buffer": 0,
      "byteLength": 1536,
      "byteOffset": 0,
      "name": "floatBufferViews",
      "target": 34963
    },
    {
      "buffer": 0,
      "byteLength": 3960,
      "byteOffset": 1536,
      "byteStride": 12,
      "name": "floatBufferViews",
      "target": 34962
    }
  ],
  "buffers": [
    {
      "byteLength": 5496,
      "uri": "scene.bin"
    }
  ],
  "materials": [
    {
      "doubleSided": true,
      "emissiveFactor": [
        0,
        0,
        0
      ],
      "name": "Chair1_Material",
      "pbrMetallicRoughness": {
        "baseColorFactor": [
          0.80000007152557373,
          0.41989398002624512,
          0.18655671179294586,
          1
        ],
        "metallicFactor": 0,
        "roughnessFactor": 0.59999999999999998
      }
    }
  ],
  "meshes": [
    {
      "name": "Chair_0",
      "primitives": [
        {
          "attributes": {
            "NORMAL": 1,
            "POSITION": 0
          },
          "indices": 2,
          "material": 0,
          "mode": 4
        }
      ]
    }
  ],
  "nodes": [
    {
      "children": [
        1
      ],
      "name": "RootNode (gltf orientation matrix)",
      "rotation": [
        -0.70710678118654746,
        -0,
        -0,
        0.70710678118654757
      ]
    },
    {
      "children": [
        2
      ],
      "name": "RootNode (model correction matrix)"
    },
    {
      "children": [
        3
      ],
      "name": "Root"
    },
    {
      "children": [
        4
      ],
      "matrix": [
        0.60350000000000004,
        0,
        0,
        0,
        0,
        0,
        0.60350000000000004,
        0,
        0,
        -0.033490000000000006,
        0,
        0,
        0,
        -0,
        0,
        1
      ],
      "name": "Chair"
    },
    {
      "mesh": 0,
      "name": "Chair_0"
    }
  ],
  "scene": 0,
  "scenes": [
    {
      "name": "OSG_Scene",
      "nodes": [
        0
      ]
    }
  ]
}

